<svg width="300" height="107" viewBox="0 0 300 107" fill="none" xmlns="http://www.w3.org/2000/svg">
<path d="M86.2864 44.1029C86.7037 43.9986 87.0166 43.8943 87.3295 43.79C88.4768 43.5814 89.6241 43.4771 90.7714 43.2685C91.5015 43.1642 92.1273 43.0599 92.8574 42.9556C92.9617 42.9556 92.9617 42.9556 93.066 42.9556C93.9004 42.8513 94.2134 42.747 94.5263 43.8943C95.3607 46.7104 95.9865 49.6309 96.508 52.5513C96.7166 53.5943 96.8209 54.7416 96.8209 55.7846C96.8209 56.4105 96.9252 57.1406 96.9252 57.7664C96.9252 57.8707 96.9252 57.975 96.9252 58.0793C96.7166 58.8094 96.8209 59.6438 96.8209 60.3739C96.8209 61.8341 96.6123 63.2943 96.4037 64.6503C95.9865 67.8836 95.2564 70.9083 94.2134 73.9331C93.2746 76.6449 92.1273 79.2525 90.6671 81.7557C89.6241 83.5288 88.4768 85.3019 87.3295 86.9708C86.7037 87.9095 85.9735 88.7439 85.2434 89.5783C84.3047 90.8299 83.1574 91.8729 82.0101 92.9159C80.237 94.5848 78.3595 96.1493 76.3778 97.6095C73.1445 99.9041 69.8068 101.782 66.1563 103.242C63.2358 104.389 60.1068 105.224 57.0821 105.849C55.7261 106.058 54.3702 106.267 53.0143 106.371C50.6154 106.579 48.2164 106.579 45.8175 106.579C44.5659 106.579 43.4186 106.371 42.167 106.267C40.1852 106.058 38.3078 105.641 36.3261 105.119C33.8229 104.493 31.4239 103.659 29.025 102.616C27.2519 101.886 25.6873 101.051 24.0185 100.113C22.2454 99.0697 20.4723 97.9224 18.9078 96.6708C17.6561 95.7321 16.5088 94.6891 15.3615 93.646C12.6497 91.2471 10.355 88.431 8.37331 85.5105C6.80879 83.2159 5.34857 80.7127 4.30556 78.1051C3.67975 76.5406 3.05395 75.0804 2.53244 73.5159C1.80233 71.3256 1.28082 69.0309 0.863615 66.7363C0.550711 64.546 0.237806 62.4599 0.133504 60.2696C0.133504 59.4352 -0.0750968 58.4965 0.0292046 57.6621C0.237807 56.0976 0.133505 54.533 0.342108 53.0728C0.655012 50.6739 1.07222 48.275 1.69802 45.9803C2.42813 43.4771 3.26254 40.9739 4.40986 38.5749C5.45287 36.2803 6.70449 34.09 8.06041 31.8996C9.20772 30.1265 10.4593 28.4577 11.9196 26.8932C13.0669 25.5373 14.3185 24.2856 15.5701 23.034C17.0303 21.6781 18.4906 20.4265 20.1594 19.2792C21.411 18.4448 22.6626 17.506 24.0185 16.6716C26.2089 15.3157 28.6078 14.1684 31.0067 13.2297C33.3013 12.291 35.7003 11.5609 38.2035 11.0394C39.6637 10.7265 41.124 10.4136 42.6885 10.2049C46.339 9.68344 49.9896 9.68344 53.6401 9.89204C54.8917 9.89204 56.1433 10.2049 57.395 10.4136C57.7079 10.4136 58.1251 10.5179 58.438 10.6222C58.5423 10.6222 58.6466 10.7265 58.8552 10.8308C58.8552 11.0394 58.8552 11.1437 58.8552 11.3523C58.6466 12.9168 58.438 14.377 58.2294 15.9415C58.1251 16.5673 58.0208 17.2974 58.0208 17.9233C57.9165 18.3405 57.8122 18.4448 57.2907 18.3405C54.6831 18.0275 52.0756 18.0276 49.4681 18.0276C47.9035 18.0276 46.339 18.2362 44.8788 18.3405C43.5229 18.4448 42.0627 18.6534 40.7067 18.9663C39.0379 19.2792 37.3691 19.8007 35.7003 20.3222C33.3013 21.1566 31.0067 22.1996 28.8164 23.4512C26.5218 24.7028 24.4357 26.2674 22.454 27.9362C20.1594 29.9179 17.969 32.1082 16.1959 34.6115C14.84 36.4889 13.4841 38.4706 12.4411 40.661C10.6679 44.1029 9.52063 47.6491 8.79052 51.404C8.47762 53.0728 8.26902 54.6373 8.26902 56.3062C8.26902 56.932 8.06041 57.5578 8.16472 58.1836C8.26902 60.6868 8.37331 63.19 8.89482 65.6933C9.41633 68.5094 10.2507 71.3256 11.3981 73.9331C12.4411 76.332 13.6927 78.6266 15.1529 80.817C17.0303 83.5288 19.1164 85.9277 21.5153 88.1181C23.6013 89.9955 25.7916 91.6643 28.1906 93.0202C30.7981 94.4805 33.51 95.7321 36.3261 96.6708C38.3078 97.2966 40.2895 97.7138 42.2713 98.0267C45.5046 98.5482 48.6336 98.5482 51.867 98.3396C54.4745 98.2353 56.9778 97.7138 59.481 96.9837C61.8799 96.3579 64.1746 95.4192 66.3649 94.3762C68.3466 93.4374 70.224 92.2901 72.1015 90.9342C73.5617 89.7869 75.0219 88.6396 76.3778 87.388C79.5069 84.4675 82.0101 81.1299 84.0961 77.375C85.9735 73.9331 87.3295 70.2825 88.1639 66.4234C88.3725 65.2761 88.4768 64.1288 88.6854 62.9814C88.894 61.7298 88.894 60.4782 88.894 59.2266C88.894 59.018 88.9983 58.7051 88.9983 58.4965C88.9983 58.2879 89.1026 58.0793 88.9983 57.8707C88.7897 57.1406 88.894 56.5148 88.894 55.7846C88.7897 54.1158 88.5811 52.447 88.3725 50.7782C88.0596 48.7965 87.5381 46.8147 86.9123 44.833C86.3908 44.5201 86.3907 44.4158 86.2864 44.1029Z" fill="#45AC4D"/>
<path d="M39.6639 31.2737C39.7682 32.3167 39.6639 33.3597 39.6639 34.2984C39.6639 35.3414 39.6639 36.3844 39.6639 37.3231C39.6639 38.2618 39.6639 39.4092 39.6639 40.3479C39.6639 41.3909 39.6639 42.4339 39.6639 43.4769C39.6639 44.5199 39.6639 45.5629 39.6639 46.5017C39.6639 47.4404 39.6639 48.5877 39.6639 49.5264C39.6639 50.4651 39.6639 51.6124 39.6639 52.6554C39.9768 52.7597 40.1854 52.7597 40.394 52.7597C42.2714 52.7597 44.0446 52.7597 45.922 52.7597C48.8424 52.7597 51.7629 52.7597 54.579 52.7597C54.8919 52.7597 55.3091 52.7597 55.622 52.7597C55.9349 52.4468 55.8306 52.0296 55.8306 51.7167C55.8306 48.4834 55.8306 45.1457 55.8306 41.9124C55.8306 41.4952 55.8306 41.1823 55.8306 40.6608C56.0392 40.5565 56.2478 40.4522 56.5607 40.4522C56.9779 40.4522 57.3951 40.4522 57.8123 40.4522C58.2296 40.4522 58.5425 40.6608 58.6468 41.078C58.8554 41.8081 59.2726 42.5382 59.6898 43.164C60.9414 44.9371 62.7145 45.7715 64.9048 45.9801C66.5737 46.0845 68.0339 45.6672 69.3898 44.7285C69.7027 44.5199 70.0156 44.207 70.2242 43.9984C70.4328 43.7898 70.5371 43.6855 70.85 43.4769C70.9543 43.6855 71.0586 43.7898 71.0586 43.8941C71.0586 44.207 71.0586 44.4156 71.0586 44.7285C71.0586 57.5576 71.0586 70.491 71.0586 83.32C71.0586 83.6329 71.0586 83.8415 71.0586 84.1545C71.0586 84.3631 70.85 84.5717 70.6414 84.5717C70.4328 84.5717 70.1199 84.5717 69.9113 84.5717C65.5307 84.5717 61.2543 84.5717 56.8736 84.5717C56.5607 84.5717 56.2478 84.5717 55.9349 84.5717C55.8306 84.3631 55.8306 84.1544 55.7263 83.9458C55.7263 83.6329 55.7263 83.32 55.7263 83.0071C55.7263 76.6448 55.7263 70.3867 55.7263 64.0243C55.7263 63.6071 55.7263 63.2942 55.7263 62.7727C54.3704 62.6684 53.0145 62.7727 51.6586 62.6684C50.3026 62.6684 48.9467 62.6684 47.6951 62.6684C46.4435 62.6684 45.0876 62.6684 43.7317 62.6684C42.3757 62.6684 41.0198 62.6684 39.7682 62.6684C39.5596 63.0856 39.6639 63.5028 39.6639 63.8157C39.6639 70.1781 39.6639 76.5405 39.6639 83.0071C39.6639 83.4243 39.7682 83.8415 39.5596 84.2588C39.351 84.3631 39.1424 84.3631 38.9338 84.3631C38.7252 84.3631 38.6209 84.3631 38.4123 84.3631C34.1359 84.3631 29.8596 84.3631 25.4789 84.3631C25.166 84.3631 24.7488 84.4674 24.3316 84.2588C24.3316 84.0502 24.2273 83.9459 24.2273 83.7372C24.2273 83.5286 24.2273 83.2157 24.2273 83.0071C24.2273 66.1103 24.2273 49.3178 24.2273 32.421C24.2273 32.1081 24.2273 31.8995 24.2273 31.5866C24.2273 31.065 24.4359 30.8564 25.0617 30.8564C25.2703 30.8564 25.3746 30.8564 25.5832 30.8564C29.8596 30.8564 34.1359 30.8564 38.4123 30.8564C38.8295 31.065 39.1424 31.065 39.6639 31.2737Z" fill="#45AC4D"/>
<path d="M65.6348 7.38879C65.6348 6.97159 65.6348 6.76298 65.6348 6.55438C65.9477 4.57266 66.1563 2.69523 66.4692 0.713504C66.4692 0.609202 66.4692 0.609204 66.4692 0.504902C66.5735 0.0876966 66.7821 -0.120908 67.1993 0.087695C67.6165 0.296298 68.0337 0.400599 68.4509 0.609202C69.9111 1.23501 71.4756 1.86082 72.9359 2.69523C74.6047 3.52964 76.3778 4.57266 78.0466 5.51137C80.237 6.86729 82.2187 8.32751 84.2004 9.89203C86.7036 11.8738 88.9983 14.0641 91.1886 16.463C92.3359 17.7146 93.3789 19.0706 94.4219 20.3222C96.0908 22.4082 97.551 24.5985 98.9069 26.8932C100.263 29.0835 101.514 31.2738 102.557 33.6727C102.766 34.1943 103.079 34.7158 103.288 35.2373C103.392 35.4459 103.392 35.6545 103.496 35.8631C103.079 36.0717 102.662 36.176 102.245 36.2803C100.889 36.4889 99.4284 36.6975 98.0725 36.9061C97.551 37.0104 97.0295 37.0104 96.508 37.1147C96.1951 37.1147 95.9865 37.0104 95.8822 36.8018C95.7779 36.5932 95.6736 36.3846 95.5693 36.176C95.0478 35.133 94.5262 33.9856 93.9004 32.9426C93.2746 31.7953 92.5445 30.648 91.9187 29.5007C90.7714 27.519 89.3112 25.6415 87.851 23.8684C87.4338 23.3469 87.0165 22.8254 86.5993 22.3039C85.7649 21.3652 84.9305 20.4265 84.0961 19.5921C83.2617 18.7576 82.4273 18.0275 81.4886 17.1931C80.3413 16.1501 79.0896 15.1071 77.7337 14.2727C75.8563 13.0211 74.0832 11.6652 71.9971 10.6221C71.1627 10.2049 70.3283 9.68342 69.4939 9.26622C68.4509 8.74471 67.4079 8.32751 66.4692 7.9103C66.1563 7.7017 65.9477 7.5974 65.6348 7.38879Z" fill="#45AC4D"/>
<path d="M92.8576 37.4264C92.5447 37.5307 92.4404 37.635 92.2318 37.635C90.4587 37.9479 88.6856 38.1565 86.9125 38.4694C86.8082 38.4694 86.5996 38.4694 86.4953 38.4694C85.8694 38.4694 85.6608 38.4694 85.4522 37.8436C84.5135 35.7576 83.3662 33.7758 82.1146 31.8984C81.1759 30.5425 80.2372 29.1866 79.1942 27.935C78.3597 26.8919 77.421 25.9532 76.4823 25.0145C74.292 22.8242 71.8931 20.9468 69.3898 19.2779C68.1382 18.4435 66.8866 17.8177 65.635 17.1919C65.2178 16.9833 64.9049 16.7747 64.592 16.6704C64.3834 15.836 64.6963 15.1059 64.6963 14.3758C64.8006 13.6457 64.9049 12.9156 65.0092 12.1854C65.2178 11.4553 65.0092 10.7252 65.5307 9.99512C65.7393 9.99512 65.9479 10.0994 66.0522 10.2037C69.1812 11.6639 72.206 13.4371 75.0221 15.5231C78.3597 17.922 81.4888 20.7382 84.2006 23.7629C86.2867 26.0575 88.0598 28.4565 89.6243 31.1683C90.563 32.7328 91.5017 34.4016 92.2318 36.0705C92.4404 36.3834 92.5447 36.9049 92.8576 37.4264Z" fill="#45AC4D"/>
<path d="M77.0035 39.931C76.6906 39.2009 76.2734 38.4708 75.9605 37.845C75.0218 35.8632 73.7702 34.1944 72.31 32.6299C70.7455 30.9611 69.0766 29.5009 67.1992 28.2492C66.0519 27.4148 64.8003 26.789 63.5487 26.0589C63.3401 25.9546 63.1315 25.746 62.9229 25.6417C63.1315 24.3901 63.2358 23.2428 63.4444 21.9912C63.5487 21.3654 63.653 20.7395 63.7573 20.1137C63.8616 19.8008 64.0702 19.6965 64.2788 19.8008C64.4874 19.9051 64.8003 20.0094 65.0089 20.1137C67.5121 21.3654 69.911 22.9299 72.1014 24.703C73.2487 25.6417 74.5003 26.6847 75.5433 27.832C77.525 29.9181 79.2982 32.2127 80.7584 34.7159C81.4885 35.8632 82.1143 37.1149 82.6358 38.3665C82.6358 38.4708 82.7401 38.5751 82.7401 38.6794C82.8444 38.9923 82.7401 39.2009 82.4272 39.2009C82.1143 39.3052 81.9057 39.3052 81.5928 39.3052C80.1326 39.5138 78.7767 39.8267 77.3164 40.0353C77.2121 40.0353 77.1078 40.0353 77.0035 39.931Z" fill="#0099DA"/>
<path d="M70.537 37.01C70.537 39.4089 68.6596 41.7035 65.8435 41.7035C63.3402 41.7035 61.1499 39.5132 61.1499 37.01C61.1499 34.5067 63.3402 32.3164 65.9478 32.3164C68.3467 32.4207 70.4327 34.2981 70.537 37.01Z" fill="#0099DA"/>
<path d="M119.037 73.412H113.405V71.2217H127.068V73.412H121.436V88.7443H118.933L119.037 73.412Z" fill="#0099DA"/>
<path d="M141.462 71.1172H152.726V73.3075H143.756V78.5226H152.1V80.7129H143.756V86.3452H153.143V88.5355H141.357V71.1172H141.462Z" fill="#0099DA"/>
<path d="M168.371 71.1172H170.77V86.4495H178.801V88.6398H168.371V71.1172Z" fill="#0099DA"/>
<path d="M193.091 71.1172H204.46V73.3075H195.49V78.5226H203.834V80.7129H195.49V86.3452H204.877V88.5355H193.091V71.1172Z" fill="#0099DA"/>
<path d="M232.308 74.9766C231.787 74.3507 231.161 73.8292 230.431 73.5163C229.701 73.2034 228.866 72.9948 228.136 72.9948C227.093 72.9948 226.259 73.2034 225.424 73.5163C224.59 73.9335 223.964 74.3507 223.338 75.0809C222.713 75.811 222.295 76.4368 221.982 77.3755C221.67 78.3142 221.461 79.1486 221.461 80.1916C221.461 81.1303 221.565 81.9647 221.878 82.7992C222.191 83.6336 222.608 84.3637 223.13 84.9895C223.651 85.6153 224.381 86.1368 225.216 86.4497C226.05 86.7626 226.885 86.9712 227.928 86.9712C228.971 86.9712 229.805 86.7626 230.535 86.3454C231.265 85.9282 231.891 85.4067 232.517 84.5723L234.499 86.0325C234.394 86.2411 234.081 86.4497 233.769 86.8669C233.456 87.1798 233.038 87.597 232.413 87.9099C231.891 88.2228 231.265 88.5357 230.431 88.7443C229.701 88.9529 228.762 89.1615 227.823 89.1615C226.467 89.1615 225.216 88.9529 224.068 88.3271C222.921 87.8056 221.982 87.0755 221.252 86.2411C220.522 85.4067 219.896 84.3637 219.479 83.3207C219.062 82.2776 219.062 81.1303 219.062 80.0873C219.062 78.7314 219.271 77.4798 219.688 76.3325C220.105 75.1852 220.731 74.1421 221.565 73.412C222.4 72.5776 223.338 71.9518 224.486 71.4303C225.633 71.0131 226.885 70.7002 228.241 70.7002C229.388 70.7002 230.535 70.9088 231.682 71.326C232.83 71.7432 233.664 72.4733 234.394 73.412L232.308 74.9766Z" fill="#0099DA"/>
<path d="M257.445 89.1613C256.089 89.1613 254.838 88.9527 253.795 88.4312C252.647 88.014 251.708 87.2839 250.874 86.4495C250.04 85.6151 249.414 84.6764 248.997 83.5291C248.579 82.3818 248.371 81.2344 248.371 79.8785C248.371 78.5226 248.579 77.3753 248.997 76.228C249.414 75.0807 250.04 74.1419 250.874 73.3075C251.708 72.4731 252.647 71.8473 253.795 71.3258C254.942 70.8043 256.089 70.5957 257.445 70.5957C258.801 70.5957 260.053 70.8043 261.096 71.3258C262.139 71.8473 263.182 72.4731 264.016 73.3075C264.85 74.1419 265.476 75.0807 265.893 76.228C266.311 77.3753 266.519 78.5226 266.519 79.8785C266.519 81.2344 266.311 82.3818 265.893 83.5291C265.476 84.6764 264.85 85.6151 264.016 86.4495C263.182 87.2839 262.243 87.9097 261.096 88.4312C259.948 88.8484 258.801 89.1613 257.445 89.1613ZM257.445 86.8667C258.488 86.8667 259.322 86.6581 260.157 86.3452C260.991 85.928 261.617 85.5108 262.243 84.885C262.869 84.2592 263.286 83.5291 263.599 82.6947C263.912 81.8603 264.12 80.9215 264.12 79.9828C264.12 79.0441 264.016 78.1054 263.599 77.271C263.286 76.4366 262.869 75.7065 262.243 75.0807C261.721 74.4548 260.991 73.9333 260.157 73.6204C259.322 73.3075 258.488 73.0989 257.445 73.0989C256.402 73.0989 255.568 73.3075 254.733 73.6204C253.899 74.0377 253.273 74.4548 252.647 75.0807C252.126 75.7065 251.604 76.4366 251.291 77.271C250.978 78.1054 250.77 79.0441 250.77 79.9828C250.77 80.9215 250.874 81.8603 251.291 82.6947C251.604 83.5291 252.021 84.2592 252.647 84.885C253.169 85.5108 253.899 86.0323 254.733 86.3452C255.568 86.6581 256.402 86.8667 257.445 86.8667Z" fill="#0099DA"/>
<path d="M280.287 70.8045V70.7002L289.674 82.2776H289.778L298.54 70.7002V70.8045V88.64H295.828V78.5228L290.091 87.0755L283.103 78.5228V88.64H280.391L280.287 70.8045Z" fill="#0099DA"/>
<path d="M113.3 31.5879H116.742V43.1653H129.884V31.5879H133.326V59.5407H129.884V46.7116H116.742V59.5407H113.3V31.5879Z" fill="#45AC4D"/>
<path d="M152.205 60.27C150.223 60.27 148.45 59.8528 146.885 59.1227C145.217 58.3926 143.861 57.3496 142.713 55.9937C141.566 54.6378 140.627 53.0732 140.001 51.3001C139.376 49.527 139.063 47.5453 139.063 45.4592C139.063 43.3732 139.376 41.4958 140.001 39.6184C140.627 37.7409 141.566 36.2807 142.713 34.9248C143.861 33.5689 145.217 32.6302 146.885 31.7958C148.554 30.9613 150.327 30.6484 152.205 30.6484C154.082 30.6484 155.96 31.0656 157.524 31.7958C159.193 32.5259 160.549 33.5689 161.696 34.9248C162.843 36.2807 163.782 37.8452 164.408 39.6184C165.034 41.3915 165.347 43.3732 165.347 45.4592C165.347 47.5453 165.034 49.4227 164.408 51.3001C163.782 53.1775 162.843 54.6378 161.696 55.9937C160.549 57.3496 159.193 58.2883 157.524 59.1227C155.855 59.8528 154.082 60.27 152.205 60.27ZM152.205 56.7238C153.665 56.7238 154.917 56.4109 156.168 55.8894C157.315 55.2636 158.359 54.5335 159.193 53.4904C160.027 52.4474 160.653 51.3001 161.175 49.9442C161.592 48.5883 161.8 47.1281 161.8 45.5635C161.8 43.999 161.592 42.6431 161.175 41.1829C160.757 39.827 160.027 38.6796 159.193 37.6366C158.359 36.5936 157.315 35.8635 156.168 35.2377C155.021 34.6119 153.665 34.4033 152.205 34.4033C150.744 34.4033 149.493 34.7162 148.241 35.2377C147.094 35.8635 146.051 36.5936 145.217 37.6366C144.382 38.6796 143.756 39.827 143.235 41.1829C142.818 42.5388 142.609 43.999 142.609 45.5635C142.609 47.1281 142.818 48.484 143.235 49.9442C143.652 51.4044 144.382 52.4474 145.217 53.4904C146.051 54.5335 147.094 55.2636 148.241 55.8894C149.389 56.5152 150.744 56.7238 152.205 56.7238Z" fill="#45AC4D"/>
<path d="M170.979 31.5879H179.844C181.513 31.5879 182.765 31.7965 183.808 32.318C184.851 32.8395 185.685 33.4653 186.311 34.1954C186.937 34.9255 187.354 35.7599 187.563 36.6987C187.771 37.6374 187.876 38.5761 187.876 39.4105C187.876 40.3492 187.771 41.1836 187.458 42.018C187.146 42.8524 186.728 43.5825 186.207 44.3127C185.685 45.0428 185.06 45.5643 184.225 45.9815C183.495 46.3987 182.556 46.7116 181.618 46.8159L188.814 59.5407H184.538L178.071 47.2331H174.212V59.5407H170.77L170.979 31.5879ZM174.421 43.8955H178.906C179.532 43.8955 180.262 43.7912 180.887 43.6868C181.513 43.5825 182.139 43.3739 182.661 43.061C183.182 42.7481 183.599 42.3309 183.912 41.7051C184.225 41.0793 184.329 40.3492 184.329 39.4105C184.329 38.4718 184.225 37.6374 183.912 37.1159C183.599 36.5944 183.182 36.0729 182.661 35.7599C182.139 35.447 181.513 35.2384 180.887 35.1341C180.262 35.0298 179.532 34.9255 178.906 34.9255H174.421V43.8955Z" fill="#45AC4D"/>
<path d="M193.299 31.5865V31.3779L206.963 49.5264H207.067L219.688 31.4822V31.6908V59.6436H215.724V43.6855H215.62L207.38 57.1404L197.263 43.6855H197.159V59.5393H193.195L193.299 31.5865Z" fill="#45AC4D"/>
<path d="M229.596 31.5879V48.7976C229.596 49.632 229.701 50.5707 229.909 51.5095C230.118 52.4482 230.431 53.2826 230.952 54.117C231.474 54.9514 232.099 55.5772 232.934 56.0987C233.768 56.6202 234.707 56.8288 235.959 56.8288C237.21 56.8288 238.149 56.6202 238.983 56.0987C239.818 55.5772 240.444 54.9514 240.965 54.117C241.487 53.2826 241.8 52.4482 242.008 51.5095C242.217 50.5707 242.321 49.632 242.321 48.7976V31.5879H245.763V49.3191C245.763 50.9879 245.554 52.4482 245.033 53.8041C244.511 55.16 243.886 56.3073 242.947 57.246C242.008 58.1847 241.069 59.0192 239.818 59.5407C238.566 60.0622 237.315 60.3751 235.959 60.3751C234.603 60.3751 233.247 60.1665 232.099 59.5407C230.952 58.9149 229.909 58.289 228.97 57.246C228.032 56.3073 227.406 55.16 226.884 53.8041C226.363 52.4482 226.154 50.9879 226.154 49.3191V31.5879H229.596Z" fill="#45AC4D"/>
<path d="M255.463 31.5867V48.7965C255.463 49.6309 255.567 50.5696 255.776 51.5083C255.985 52.447 256.298 53.2814 256.819 54.1158C257.341 54.9502 257.966 55.576 258.801 56.0975C259.635 56.6191 260.574 56.8277 261.826 56.8277C263.077 56.8277 264.016 56.6191 264.85 56.0975C265.685 55.576 266.311 54.9502 266.832 54.1158C267.354 53.2814 267.666 52.447 267.875 51.5083C268.084 50.5696 268.188 49.6309 268.188 48.7965V31.5867H271.63V49.318C271.63 50.9868 271.421 52.447 270.9 53.8029C270.378 55.1588 269.752 56.3062 268.814 57.2449C267.875 58.1836 266.936 59.018 265.685 59.5395C264.433 60.061 263.181 60.2696 261.826 60.2696C260.47 60.2696 259.114 60.061 257.966 59.4352C256.819 58.8094 255.776 58.1836 254.837 57.1406C253.899 56.2019 253.273 55.0545 252.751 53.6986C252.23 52.3427 252.021 50.8825 252.021 49.2137V31.4824H255.463V31.5867Z" fill="#45AC4D"/>
<path d="M277.783 31.5879H286.649C288.422 31.5879 289.987 31.7965 291.343 32.2137C292.699 32.6309 293.846 33.2567 294.889 33.9868C295.932 34.7169 296.662 35.5513 297.392 36.5944C298.018 37.5331 298.539 38.5761 298.957 39.6191C299.374 40.6621 299.582 41.7051 299.791 42.7481C300 43.7911 300 44.7299 300 45.5643C300 47.3374 299.687 49.1105 299.061 50.7793C298.435 52.4482 297.601 53.9084 296.453 55.2643C295.306 56.6202 293.846 57.5589 292.073 58.3933C290.3 59.2278 288.318 59.5407 286.128 59.5407H277.888L277.783 31.5879ZM281.225 55.9944H285.502C286.962 55.9944 288.318 55.7858 289.674 55.3686C290.925 54.9514 292.073 54.3256 293.116 53.3869C294.054 52.5525 294.889 51.4052 295.41 50.1535C295.932 48.9019 296.245 47.3374 296.245 45.5643C296.245 44.6256 296.141 43.5826 295.828 42.4352C295.619 41.1836 295.098 40.1406 294.367 38.9933C293.637 37.9503 292.594 37.0116 291.343 36.2815C290.091 35.5513 288.422 35.1341 286.336 35.1341H281.225V55.9944Z" fill="#45AC4D"/>
</svg>
